<svg version="1.1" id="Layer_1" xmlns="http://www.w3.org/2000/svg" xmlns:xlink="http://www.w3.org/1999/xlink" x="0px" y="0px"
	 width="100%" viewBox="0 0 512 400" enable-background="new 0 0 512 400" xml:space="preserve">
<path fill="#000000" opacity="1.000000" stroke="none" 
	d="
M146.000519,216.851349 
	C222.638077,216.818054 298.775696,216.788986 374.913300,216.729996 
	C401.560760,216.709351 428.206299,216.949081 454.830353,218.049942 
	C461.642578,218.331619 468.449310,218.831299 475.274475,218.951752 
	C477.216431,218.986023 479.310272,218.966125 480.725006,221.241898 
	C479.702545,223.434662 477.632019,223.200928 475.734680,223.282715 
	C467.425873,223.640961 459.117035,223.999313 450.806976,224.326584 
	C442.920044,224.637207 442.771027,224.628143 441.103638,232.373215 
	C440.197235,236.583588 438.237854,238.635635 433.605743,238.480804 
	C425.118744,238.197128 416.606934,238.641632 408.121063,238.341415 
	C403.048462,238.161972 400.200653,240.147156 398.125610,244.711914 
	C389.285736,264.158081 377.356506,281.549133 362.013397,296.438690 
	C338.409973,319.344391 310.075256,332.668182 277.562195,337.134827 
	C274.927826,337.496765 273.380157,338.514099 272.118073,340.739990 
	C267.682739,348.562561 263.134979,356.321991 258.563141,364.065979 
	C257.668671,365.581116 257.316681,367.576324 255.345642,368.294220 
	C253.533005,368.000214 253.108826,366.399963 252.366226,365.165222 
	C247.302765,356.745880 242.172516,348.363861 237.287338,339.841675 
	C235.471375,336.673676 232.651047,335.806366 229.503479,335.135193 
	C199.104019,328.652924 174.269424,312.512939 153.129807,290.375061 
	C141.213348,277.895874 131.594330,263.629730 124.657257,247.785263 
	C121.856857,241.389053 118.372246,238.012939 110.844734,238.769699 
	C103.423798,239.515717 95.877106,238.793579 88.384880,238.611877 
	C83.300774,238.488586 80.947556,236.491806 80.582893,231.734207 
	C80.226685,227.086945 78.346588,225.201462 73.190643,224.830246 
	C62.894863,224.088913 52.569580,224.763092 42.303764,223.679230 
	C40.531597,223.492111 38.625095,224.106140 37.148697,222.220886 
	C37.615124,219.552780 39.790688,219.830627 41.688007,219.695602 
	C66.930664,217.899078 92.191788,216.637756 117.512115,216.879745 
	C126.840637,216.968903 136.171036,216.861526 146.000519,216.851349 
M163.502151,239.078583 
	C157.944290,239.395706 152.308594,238.455841 146.801788,239.595139 
	C146.458908,242.514374 148.115189,244.128601 149.215622,245.891968 
	C155.783493,256.416504 163.835526,265.714813 172.811371,274.249634 
	C188.129623,288.815308 205.771759,300.070068 226.708023,302.813782 
	C238.834045,304.402954 245.556656,309.661682 250.489822,319.583038 
	C251.628113,321.872314 252.909546,324.310822 255.967682,325.374359 
	C260.159119,320.859711 262.756622,315.432800 265.739716,310.296387 
	C267.382660,307.467529 269.437988,305.697388 272.761475,305.443481 
	C277.404144,305.088867 282.106354,305.005554 286.667542,304.173004 
	C321.984772,297.726715 348.987854,278.411041 369.855560,249.835358 
	C371.947327,246.970886 374.145905,243.984146 374.950378,240.351379 
	C372.869293,238.660446 370.615326,239.247879 368.534027,239.241486 
	C335.868408,239.141266 303.201965,239.182724 270.537567,238.943863 
	C265.703613,238.908508 264.385834,241.096237 264.379761,245.206909 
	C264.366211,254.373154 264.335815,263.539398 264.326965,272.705627 
	C264.326172,273.527069 264.337036,274.392456 265.592896,274.938019 
	C281.893677,265.026886 297.925079,254.313522 314.394684,244.143860 
	C312.697296,249.584122 308.547699,252.966049 305.230255,256.937286 
	C291.885986,272.911407 279.392731,289.603271 265.082031,304.762268 
	C257.912506,312.356750 252.931366,312.418152 245.904510,304.505066 
	C230.306961,286.940369 214.881760,269.221893 199.491150,251.475189 
	C197.884415,249.622482 195.222763,248.285080 195.091675,243.813293 
	C211.505569,254.981903 227.556229,264.853241 244.688171,275.344086 
	C244.688171,263.983124 244.509186,254.341064 244.768341,244.710800 
	C244.886948,240.303177 243.360092,239.014984 238.998901,239.043732 
	C214.167328,239.207443 189.333939,239.095093 163.502151,239.078583 
z"/>
<path fill="#000000" opacity="1.000000" stroke="none" 
	d="
M200.427490,135.474792 
	C219.313995,105.107315 236.009293,73.815750 256.456879,43.838055 
	C291.967316,96.941238 325.560455,150.273102 357.023956,204.639572 
	C354.975525,206.693024 353.398102,206.302872 351.956207,206.302399 
	C290.963074,206.282837 229.969955,206.239761 168.976822,206.197067 
	C168.143768,206.196487 167.308609,206.196594 166.478073,206.141495 
	C161.590134,205.817307 160.655762,204.562851 162.965683,200.232941 
	C167.825684,191.122955 172.883301,182.112747 178.074814,173.186646 
	C185.360077,160.660583 192.841064,148.248367 200.427490,135.474792 
M255.145767,156.177750 
	C253.705872,125.444656 253.397369,94.684242 253.267746,63.869419 
	C235.281845,103.559769 218.747086,143.701202 197.391296,182.292160 
	C238.567856,182.292160 278.859222,182.292160 320.059540,182.292160 
	C299.422791,143.975769 279.819641,106.211105 262.074890,67.510170 
	C261.705109,102.161316 259.173462,136.520752 257.216125,170.971069 
	C254.954086,166.514099 256.089264,161.677048 255.145767,156.177750 
z"/>
<path fill="#000000" opacity="1.000000" stroke="none" 
	d="
M192.357391,56.266640 
	C198.719711,53.298050 204.865219,50.713261 210.774887,47.670376 
	C217.469421,44.223366 223.219025,46.837822 229.432846,49.475441 
	C228.317200,52.124012 226.177246,52.031288 224.371216,52.530201 
	C206.461807,57.477665 189.245728,63.935909 174.254150,75.318771 
	C148.991425,94.500359 134.536957,120.173958 129.421600,151.142502 
	C126.573799,168.383194 127.236595,185.643051 132.522766,202.478470 
	C133.671860,206.138138 132.578110,207.356293 128.932953,207.304306 
	C121.608841,207.199844 114.282074,207.251892 106.956619,207.285461 
	C104.171654,207.298218 102.484245,206.602982 103.063393,203.224838 
	C108.211510,173.196381 115.833328,143.945724 132.554489,118.026100 
	C148.281357,93.647713 166.717957,71.666756 192.357391,56.266640 
z"/>
<path fill="#000000" opacity="1.000000" stroke="none" 
	d="
M394.927856,133.187347 
	C404.378204,152.246063 409.296997,172.159805 411.311951,192.879700 
	C411.633057,196.181686 412.207031,199.476059 412.917389,202.718475 
	C413.635254,205.994812 412.578522,207.392593 409.189209,207.335480 
	C402.859100,207.228806 396.525513,207.338699 390.194794,207.254013 
	C385.041016,207.185104 384.441925,206.424606 386.431152,201.649094 
	C391.788727,188.787155 393.481323,175.422928 392.821625,161.582565 
	C391.924561,142.762024 385.860413,125.744606 375.451233,110.211739 
	C356.214386,81.506012 328.915100,64.165176 296.293274,54.407364 
	C292.843048,53.375340 289.401886,52.313046 285.016052,50.978657 
	C292.100983,46.841309 298.542267,46.340576 305.174957,48.792431 
	C321.458923,54.812023 336.062744,63.768475 348.984650,75.263985 
	C367.551636,91.781433 383.004150,110.872368 394.927856,133.187347 
z"/>
</svg>